<?xml version='1.0' encoding='iso-8859-1'?>
<!DOCTYPE svg PUBLIC '-//W3C//DTD SVG 1.1//EN' 'http://www.w3.org/Graphics/SVG/1.1/DTD/svg11.dtd'>
<svg version="1.1" xmlns="http://www.w3.org/2000/svg" viewBox="0 0 440.499 440.499" xmlns:xlink="http://www.w3.org/1999/xlink" enable-background="new 0 0 440.499 440.499">
  <path style="fill: #ffffff;" d="m416.274,186.459l-7.883-7.883-1.726-151.896 8.345-8.345c3.905-3.905 3.905-10.237 0-14.142s-10.237-3.905-14.143,0l-8.346,8.346-151.895-1.726-7.883-7.884c-3.905-3.905-10.237-3.905-14.143,0-3.905,3.905-3.905,10.237 0,14.142l6.647,6.647-59.331,214.807c-6.5,4.791-14.326,7.381-22.551,7.381h-75.07c-25.916,0-47,21.084-47,47 0,25.916 21.084,47 47,47h196.705c22.219,0 40.296,18.077 40.296,40.296 0,22.22-18.077,40.296-40.296,40.296h-100.573c-5.523,0-10,4.477-10,10s4.477,10 10,10h100.573c33.248,0 60.296-27.049 60.296-60.296s-27.049-60.296-60.296-60.296h-196.704c-14.888,0-27-12.112-27-27s12.112-27 27-27h75.07c13.025,0 25.387-4.27 35.515-12.124l216.604-59.827 6.646,6.646c1.953,1.953 4.512,2.929 7.071,2.929s5.119-0.976 7.071-2.929c3.906-3.904 3.906-10.236 0.001-14.142zm-28.114-28.114l-56.58-56.58 55.309-55.309 1.271,111.889zm-15.414-126.03l-55.308,55.308-56.579-56.579 111.887,1.271zm-69.451,69.45l-108.947,108.947 47.158-170.735 61.789,61.788zm-94.805,123.09l108.947-108.947 61.789,61.789-170.736,47.158z"/>
</svg>
