<?xml version="1.0" encoding="iso-8859-1"?>
<!-- Generator: Adobe Illustrator 21.0.0, SVG Export Plug-In . SVG Version: 6.00 Build 0)  -->
<svg version="1.1" id="Layer_1" xmlns="http://www.w3.org/2000/svg" xmlns:xlink="http://www.w3.org/1999/xlink" x="0px" y="0px"
	 viewBox="0 0 100.353 100.353" style="enable-background:new 0 0 100.353 100.353;" xml:space="preserve">
<path style="fill:lightblue;" d="M78.346,37.949h-6.96l-0.013-15.707c0.001-0.026,0.008-0.051,0.008-0.077
	c0-0.424-0.177-0.805-0.459-1.077L59.297,8.219c-0.275-0.307-0.67-0.505-1.115-0.505c-0.001,0-0.003,0-0.004,0
	c-0.001,0-0.003,0-0.004,0H30.103c-0.398,0-0.779,0.158-1.061,0.439c-0.281,0.282-0.439,0.664-0.439,1.062l0.015,28.734h-6.962
	c-4.721,0-8.561,3.841-8.561,8.562v22.747c0,4.721,3.84,8.562,8.561,8.562h6.963v12.966c0,0.829,0.672,1.5,1.5,1.5h39.77
	c0.828,0,1.5-0.671,1.5-1.5V77.82h6.959c4.721,0,8.561-3.841,8.561-8.562V46.511C86.907,41.79,83.067,37.949,78.346,37.949z
	 M59.681,13.121l6.816,7.545h-6.816V13.121z M31.603,10.714h25.078v11.451c0,0.829,0.672,1.5,1.5,1.5h10.193l0.012,14.284H31.617
	L31.603,10.714z M68.387,89.286h-36.77V76.804c0.052-0.153,0.087-0.314,0.087-0.484s-0.035-0.331-0.087-0.484v-12.89h36.77V89.286z
	 M83.907,69.258c0,3.067-2.494,5.562-5.561,5.562h-6.959V62.945h3.636c0.828,0,1.5-0.671,1.5-1.5s-0.672-1.5-1.5-1.5h-5.136h-39.77
	h-5.139c-0.828,0-1.5,0.671-1.5,1.5s0.672,1.5,1.5,1.5h3.639V74.82h-6.963c-3.066,0-5.561-2.495-5.561-5.562V46.511
	c0-3.067,2.494-5.562,5.561-5.562h8.463h0.001h39.769h0.001h8.458c3.066,0,5.561,2.495,5.561,5.562L83.907,69.258L83.907,69.258z"/>
</svg>
